<svg width="11" height="11" viewBox="0 0 11 11" fill="none" xmlns="http://www.w3.org/2000/svg">
<g clip-path="url(#clip0_101_105)">
<path d="M4.75961 4.85995C4.7813 4.71678 4.82902 4.59096 4.88976 4.48249C4.95051 4.37402 5.03728 4.28291 5.14574 4.2135C5.24987 4.14842 5.38003 4.11805 5.54056 4.11371C5.64035 4.11805 5.73146 4.1354 5.81389 4.17011C5.90066 4.20916 5.97876 4.26122 6.0395 4.3263C6.10024 4.39138 6.14797 4.46947 6.18701 4.55625C6.22606 4.64302 6.24342 4.73847 6.24775 4.83392H7.02437C7.01569 4.63 6.97664 4.44344 6.90289 4.27424C6.82913 4.10503 6.72934 3.95752 6.59918 3.83604C6.46902 3.71455 6.31283 3.6191 6.13061 3.54969C5.94839 3.48027 5.74881 3.4499 5.52754 3.4499C5.24553 3.4499 4.99823 3.49762 4.78998 3.59741C4.58172 3.6972 4.40818 3.82736 4.26934 3.99656C4.13051 4.16577 4.02638 4.36101 3.9613 4.58662C3.89622 4.81223 3.85717 5.04651 3.85717 5.29815V5.4153C3.85717 5.66693 3.89188 5.90122 3.95696 6.12683C4.02204 6.35244 4.12617 6.54768 4.265 6.71254C4.40384 6.87741 4.57738 7.01191 4.78564 7.10736C4.99389 7.20281 5.24119 7.25487 5.5232 7.25487C5.72712 7.25487 5.91802 7.22016 6.0959 7.15508C6.27379 7.09 6.42998 6.99889 6.56447 6.88175C6.69897 6.76461 6.80744 6.63011 6.88553 6.47392C6.96363 6.31773 7.01135 6.15286 7.01569 5.97498H6.23908C6.23474 6.06609 6.21305 6.14852 6.174 6.22662C6.13495 6.30471 6.08289 6.36979 6.01781 6.42619C5.95273 6.4826 5.87897 6.52598 5.7922 6.55635C5.70976 6.58672 5.62299 6.5954 5.53188 6.59974C5.37569 6.5954 5.24553 6.56503 5.14574 6.49995C5.03728 6.43053 4.95051 6.33942 4.88976 6.23096C4.82902 6.12249 4.7813 5.99233 4.75961 5.84916C4.73791 5.70598 4.7249 5.55847 4.7249 5.4153V5.29815C4.7249 5.1463 4.73791 5.00313 4.75961 4.85995ZM5.59262 1.01593C3.1977 1.01593 1.254 2.95963 1.254 5.35455C1.254 7.74947 3.1977 9.69318 5.59262 9.69318C7.98754 9.69318 9.93125 7.74947 9.93125 5.35455C9.93125 2.95963 7.98754 1.01593 5.59262 1.01593ZM5.59262 8.82545C3.67929 8.82545 2.12172 7.26789 2.12172 5.35455C2.12172 3.44122 3.67929 1.88365 5.59262 1.88365C7.50595 1.88365 9.06352 3.44122 9.06352 5.35455C9.06352 7.26789 7.50595 8.82545 5.59262 8.82545Z" fill="#FAFBFF"/>
</g>
<defs>
<clipPath id="clip0_101_105">
<rect width="10.4127" height="10.4127" fill="white" transform="translate(0.386261 0.148193)"/>
</clipPath>
</defs>
</svg>
