<svg width="59" height="15" viewBox="0 0 59 15" fill="none" xmlns="http://www.w3.org/2000/svg">
<path d="M0.495538 11.3862V1.28907H6.75696V2.60052H2.01899V5.677H6.30831V6.98351H2.01899V11.3862H0.495538ZM11.2201 11.5391C10.474 11.5391 9.83139 11.3797 9.29235 11.0608C8.75659 10.7387 8.34245 10.2868 8.04992 9.70501C7.76068 9.11996 7.61606 8.43465 7.61606 7.6491C7.61606 6.8734 7.76068 6.18974 8.04992 5.59811C8.34245 5.00648 8.75002 4.54468 9.27262 4.21271C9.79852 3.88074 10.4132 3.71475 11.1165 3.71475C11.5438 3.71475 11.958 3.78542 12.359 3.92675C12.76 4.06809 13.1199 4.28995 13.4387 4.59234C13.7575 4.89473 14.009 5.28751 14.193 5.77067C14.3771 6.25055 14.4691 6.83396 14.4691 7.52091V8.04352H8.44927V6.93914H13.0245C13.0245 6.55129 12.9457 6.20782 12.7879 5.90872C12.6301 5.60633 12.4083 5.36803 12.1223 5.19383C11.8396 5.01963 11.5077 4.93253 11.1264 4.93253C10.7123 4.93253 10.3507 5.03442 10.0417 5.2382C9.73607 5.4387 9.49942 5.70165 9.33179 6.02704C9.16745 6.34915 9.08527 6.6992 9.08527 7.07719V7.93998C9.08527 8.44616 9.17402 8.87673 9.35151 9.23171C9.53228 9.58669 9.78373 9.85785 10.1058 10.0452C10.4279 10.2293 10.8043 10.3213 11.2349 10.3213C11.5142 10.3213 11.769 10.2819 11.9991 10.203C12.2291 10.1208 12.428 9.99919 12.5956 9.83813C12.7632 9.67708 12.8914 9.47822 12.9802 9.24157L14.3754 9.49301C14.2637 9.90387 14.0632 10.2638 13.7739 10.5727C13.488 10.8784 13.1281 11.1167 12.6942 11.2876C12.2636 11.4553 11.7723 11.5391 11.2201 11.5391ZM16.1047 11.3862V3.81336H17.5197V5.04592H17.6134C17.7712 4.62849 18.0292 4.3031 18.3874 4.06973C18.7457 3.83308 19.1746 3.71475 19.6742 3.71475C20.1804 3.71475 20.6044 3.83308 20.9462 4.06973C21.2914 4.30638 21.5461 4.63178 21.7104 5.04592H21.7893C21.9701 4.64164 22.2577 4.31953 22.6521 4.07959C23.0465 3.83637 23.5165 3.71475 24.0622 3.71475C24.7491 3.71475 25.3095 3.93004 25.7434 4.36062C26.1805 4.79119 26.3991 5.44034 26.3991 6.30807V11.3862H24.925V6.44612C24.925 5.93337 24.7853 5.56196 24.5059 5.33188C24.2265 5.1018 23.8929 4.98676 23.505 4.98676C23.0252 4.98676 22.6521 5.13467 22.3859 5.43048C22.1196 5.72301 21.9865 6.09935 21.9865 6.55951V11.3862H20.5173V6.35244C20.5173 5.94159 20.3891 5.61126 20.1327 5.36146C19.8764 5.11166 19.5428 4.98676 19.1319 4.98676C18.8525 4.98676 18.5945 5.06071 18.3579 5.20862C18.1245 5.35324 17.9355 5.55538 17.7909 5.81504C17.6495 6.0747 17.5789 6.37545 17.5789 6.71728V11.3862H16.1047ZM28.3749 11.3862V3.81336H29.849V11.3862H28.3749ZM29.1194 2.64489C28.863 2.64489 28.6428 2.55943 28.4587 2.38851C28.2779 2.21431 28.1875 2.00724 28.1875 1.7673C28.1875 1.52408 28.2779 1.31701 28.4587 1.14609C28.6428 0.971889 28.863 0.884788 29.1194 0.884788C29.3757 0.884788 29.5943 0.971889 29.7751 1.14609C29.9592 1.31701 30.0512 1.52408 30.0512 1.7673C30.0512 2.00724 29.9592 2.21431 29.7751 2.38851C29.5943 2.55943 29.3757 2.64489 29.1194 2.64489ZM31.9506 11.3862V1.28907H35.6483C36.3648 1.28907 36.9581 1.40739 37.4281 1.64405C37.8981 1.87741 38.2498 2.19459 38.4831 2.59559C38.7165 2.99329 38.8332 3.44195 38.8332 3.94155C38.8332 4.36226 38.756 4.71724 38.6015 5.00648C38.447 5.29244 38.2399 5.52251 37.9803 5.69672C37.7239 5.86763 37.4412 5.99253 37.1323 6.07142V6.17002C37.4675 6.18646 37.7946 6.29492 38.1134 6.49542C38.4355 6.69263 38.7017 6.97365 38.9121 7.33849C39.1224 7.70333 39.2276 8.14705 39.2276 8.66966C39.2276 9.18569 39.106 9.64914 38.8628 10.06C38.6228 10.4676 38.2514 10.7913 37.7485 11.0313C37.2457 11.2679 36.6031 11.3862 35.8208 11.3862H31.9506ZM33.474 10.0797H35.6729C36.4026 10.0797 36.9252 9.93838 37.2407 9.65571C37.5563 9.37304 37.714 9.01971 37.714 8.59571C37.714 8.27688 37.6335 7.98435 37.4724 7.71812C37.3114 7.45189 37.0813 7.23989 36.7822 7.08212C36.4864 6.92435 36.1347 6.84547 35.7271 6.84547H33.474V10.0797ZM33.474 5.65727H35.5151C35.857 5.65727 36.1643 5.59154 36.4371 5.46006C36.7132 5.32859 36.9318 5.14453 37.0928 4.90788C37.2572 4.66794 37.3393 4.38527 37.3393 4.05987C37.3393 3.64244 37.1931 3.2924 36.9005 3.00973C36.608 2.72706 36.1594 2.58573 35.5546 2.58573H33.474V5.65727ZM42.3904 1.28907V11.3862H40.9162V1.28907H42.3904ZM46.5774 11.5539C46.0975 11.5539 45.6637 11.4651 45.2758 11.2876C44.888 11.1068 44.5806 10.8455 44.3539 10.5037C44.1303 10.1619 44.0186 9.74281 44.0186 9.2465C44.0186 8.81921 44.1008 8.46752 44.2651 8.19143C44.4294 7.91533 44.6513 7.69676 44.9307 7.5357C45.2101 7.37465 45.5223 7.25303 45.8674 7.17086C46.2126 7.08869 46.5642 7.02624 46.9225 6.98351C47.3761 6.93092 47.7442 6.88819 48.0269 6.85533C48.3096 6.81917 48.515 6.76165 48.6432 6.68277C48.7714 6.60388 48.8355 6.4757 48.8355 6.29821V6.2637C48.8355 5.83312 48.7138 5.49951 48.4706 5.26285C48.2307 5.0262 47.8724 4.90788 47.3958 4.90788C46.8995 4.90788 46.5084 5.01798 46.2224 5.2382C45.9398 5.45513 45.7442 5.69672 45.6357 5.96295L44.2503 5.64741C44.4147 5.18726 44.6546 4.81584 44.9701 4.53318C45.289 4.24722 45.6554 4.04015 46.0696 3.91196C46.4837 3.78049 46.9192 3.71475 47.3761 3.71475C47.6785 3.71475 47.999 3.75091 48.3375 3.82322C48.6793 3.89224 48.9982 4.02043 49.294 4.20778C49.5931 4.39513 49.8379 4.66301 50.0286 5.01141C50.2192 5.35653 50.3145 5.80518 50.3145 6.35737V11.3862H48.8749V10.3509H48.8157C48.7204 10.5415 48.5774 10.7289 48.3868 10.9129C48.1962 11.097 47.9513 11.2498 47.6522 11.3714C47.3531 11.4931 46.9948 11.5539 46.5774 11.5539ZM46.8979 10.3706C47.3054 10.3706 47.6538 10.2901 47.9431 10.129C48.2356 9.96796 48.4575 9.7576 48.6087 9.49794C48.7631 9.235 48.8404 8.95397 48.8404 8.65487V7.67868C48.7878 7.73127 48.6859 7.78057 48.5347 7.82659C48.3868 7.86932 48.2175 7.90711 48.0269 7.93998C47.8363 7.96956 47.6505 7.9975 47.4698 8.0238C47.289 8.0468 47.1378 8.06653 47.0162 8.08296C46.7302 8.11911 46.4689 8.17992 46.2323 8.26538C45.9989 8.35084 45.8116 8.47409 45.6702 8.63515C45.5322 8.79292 45.4632 9.00327 45.4632 9.26622C45.4632 9.63106 45.5979 9.90715 45.8674 10.0945C46.137 10.2786 46.4804 10.3706 46.8979 10.3706ZM57.3907 14.2261V10.2079H57.3019C57.2132 10.369 57.085 10.553 56.9174 10.7601C56.753 10.9672 56.5262 11.1479 56.237 11.3024C55.9478 11.4569 55.5731 11.5341 55.1129 11.5341C54.5015 11.5341 53.9559 11.378 53.4761 11.0658C52.9995 10.7502 52.6248 10.3016 52.352 9.7198C52.0824 9.13475 51.9477 8.43301 51.9477 7.61459C51.9477 6.79616 52.0841 6.09607 52.3569 5.5143C52.633 4.93253 53.011 4.48716 53.4908 4.1782C53.9707 3.86924 54.5147 3.71475 55.1228 3.71475C55.5928 3.71475 55.9708 3.79364 56.2567 3.95141C56.546 4.10589 56.7695 4.28666 56.9272 4.49373C57.0883 4.7008 57.2132 4.88322 57.3019 5.04099H57.4252V3.81336H58.8648V14.2261H57.3907ZM55.4383 10.2769C55.8623 10.2769 56.2206 10.1652 56.5131 9.94167C56.8089 9.71487 57.0324 9.40098 57.1836 8.99999C57.3381 8.59899 57.4153 8.13226 57.4153 7.59979C57.4153 7.0739 57.3397 6.61374 57.1885 6.21932C57.0373 5.8249 56.8155 5.51758 56.523 5.29737C56.2304 5.07715 55.8689 4.96704 55.4383 4.96704C54.9946 4.96704 54.6248 5.08208 54.329 5.31216C54.0332 5.54224 53.8097 5.85613 53.6585 6.25384C53.5106 6.65154 53.4366 7.1002 53.4366 7.59979C53.4366 8.10597 53.5122 8.56119 53.6634 8.96548C53.8146 9.36976 54.0381 9.69022 54.3339 9.92688C54.633 10.1602 55.0011 10.2769 55.4383 10.2769Z" fill="#F9F5FF"/>
</svg>
