<svg width="12" height="12" viewBox="0 0 12 12" fill="none" xmlns="http://www.w3.org/2000/svg">
<path d="M5.21031 9.58332C5.2103 9.51969 5.1963 9.45684 5.16929 9.39922C5.14228 9.34161 5.10294 9.29064 5.05404 9.24993C5.00514 9.20922 4.94788 9.17976 4.88633 9.16364C4.82478 9.14752 4.76043 9.14514 4.69785 9.15666C4.12989 9.26089 3.41279 9.27656 3.22213 8.74102C3.05587 8.32625 2.78049 7.96419 2.42516 7.69324C2.39981 7.67945 2.37564 7.66357 2.35292 7.64578C2.32182 7.56375 2.26659 7.49307 2.1945 7.44307C2.12242 7.39308 2.03687 7.3661 1.94914 7.36572H1.94702C1.83231 7.36568 1.72225 7.41108 1.64094 7.492C1.55962 7.57292 1.51368 7.68275 1.51316 7.79746C1.51146 8.15125 1.86502 8.37792 2.00846 8.45461C2.1776 8.62456 2.31353 8.82457 2.40927 9.04439C2.56731 9.48843 3.02659 10.1621 4.34682 10.0753C4.34726 10.0905 4.34767 10.1049 4.34788 10.118L4.34979 10.2341C4.34979 10.3492 4.3955 10.4596 4.47686 10.5409C4.55823 10.6223 4.66858 10.668 4.78365 10.668C4.89872 10.668 5.00907 10.6223 5.09044 10.5409C5.1718 10.4596 5.21751 10.3492 5.21751 10.2341L5.21539 10.096C5.21328 10.0138 5.21031 9.89473 5.21031 9.58332ZM9.83832 3.02071C9.85209 2.96648 9.86565 2.90632 9.87751 2.83853C9.94768 2.35502 9.88651 1.86155 9.70041 1.40982C9.67693 1.35093 9.64085 1.29788 9.5947 1.25441C9.54855 1.21093 9.49346 1.17808 9.43327 1.15815C9.27882 1.10603 8.70854 1.0035 7.61796 1.70047C6.71142 1.48714 5.76773 1.48714 4.86119 1.70047C3.77505 1.0137 3.20772 1.1069 3.05477 1.15605C2.9931 1.17517 2.93649 1.20785 2.8891 1.25169C2.8417 1.29554 2.80471 1.34943 2.78085 1.40942C2.59095 1.86983 2.53044 2.37337 2.60586 2.86565C2.61646 2.92116 2.62789 2.97243 2.63976 3.01945C2.28034 3.4982 2.08889 4.08214 2.0951 4.68076C2.09393 4.81432 2.10008 4.94784 2.11353 5.08072C2.25844 7.07759 3.56003 7.67712 4.46694 7.88304C4.44809 7.93727 4.43093 7.99531 4.41567 8.05675C4.38849 8.16838 4.40668 8.28624 4.46626 8.38448C4.52584 8.48272 4.62195 8.55332 4.73351 8.5808C4.84507 8.60828 4.96297 8.5904 5.06137 8.53109C5.15976 8.47177 5.23062 8.37585 5.2584 8.26436C5.286 8.1198 5.35676 7.987 5.46135 7.88346C5.52459 7.8281 5.57037 7.75555 5.59314 7.67464C5.6159 7.59373 5.61466 7.50795 5.58957 7.42774C5.56448 7.34752 5.51661 7.27633 5.4518 7.22281C5.38699 7.1693 5.30802 7.13578 5.22451 7.12632C3.7259 6.95515 3.07532 6.34461 2.97744 5.00107C2.9666 4.89466 2.96172 4.78772 2.96283 4.68076C2.95587 4.25413 3.09682 3.83823 3.36173 3.50374C3.38835 3.46887 3.41671 3.43535 3.44668 3.40332C3.4998 3.34389 3.53552 3.27096 3.54991 3.19256C3.5643 3.11415 3.5568 3.0333 3.52825 2.95887C3.49898 2.88057 3.47644 2.79992 3.46088 2.71779C3.42554 2.48424 3.43713 2.246 3.49499 2.01699C3.87207 2.1235 4.22696 2.29685 4.54276 2.52881C4.59499 2.5636 4.65408 2.58675 4.71604 2.59669C4.77799 2.60663 4.84136 2.60313 4.90185 2.58644C5.77873 2.34846 6.70321 2.34861 7.58001 2.58687C7.64083 2.60355 7.70453 2.60685 7.76674 2.59653C7.82895 2.58622 7.88818 2.56254 7.94036 2.52713C8.25469 2.29421 8.60809 2.1193 8.98392 2.01065C9.04152 2.23416 9.05441 2.46684 9.02184 2.69534C9.00613 2.78538 8.98158 2.87365 8.94854 2.95888C8.91999 3.0333 8.9125 3.11416 8.92689 3.19256C8.94128 3.27097 8.97699 3.34389 9.03011 3.40333C9.06358 3.44104 9.09705 3.48171 9.12713 3.51985C9.39018 3.84868 9.52874 4.25979 9.51843 4.68076C9.51921 4.79339 9.51377 4.90598 9.50212 5.01802C9.40657 6.34375 8.75345 6.95472 7.24785 7.12631C7.16432 7.13583 7.08534 7.16941 7.02054 7.22297C6.95573 7.27654 6.90789 7.34778 6.88282 7.42803C6.85775 7.50829 6.85654 7.59409 6.87934 7.67502C6.90213 7.75595 6.94795 7.82851 7.01122 7.88388C7.11909 7.99019 7.19001 8.1283 7.21353 8.27792C7.24285 8.39406 7.25632 8.51364 7.25358 8.6334V9.64603C7.24933 9.92693 7.24933 10.1375 7.24933 10.2341C7.24933 10.3492 7.29504 10.4595 7.3764 10.5409C7.45777 10.6223 7.56812 10.668 7.68319 10.668C7.79826 10.668 7.90861 10.6223 7.98998 10.5409C8.07134 10.4595 8.11705 10.3492 8.11705 10.2341C8.11705 10.14 8.11705 9.93371 8.12129 9.6528V8.6334C8.12479 8.44156 8.10219 8.25013 8.05413 8.06437C8.04039 8.0034 8.02357 7.94316 8.00372 7.88389C8.66373 7.77424 9.26342 7.43395 9.69605 6.92358C10.1287 6.41321 10.3662 5.76589 10.3662 5.09683C10.3805 4.95861 10.3872 4.81971 10.3862 4.68076C10.3958 4.08149 10.2027 3.49654 9.83832 3.02072L9.83832 3.02071Z" fill="#FAFBFF"/>
</svg>
