<svg width="12" height="12" viewBox="0 0 12 12" fill="none" xmlns="http://www.w3.org/2000/svg">
<g clip-path="url(#clip0_101_107)">
<path d="M7.75652 0.687805H3.85175C2.98875 0.687805 2.16109 1.03063 1.55085 1.64087C0.940614 2.25111 0.597786 3.07877 0.597786 3.94177L0.597786 7.84654C0.597786 8.70954 0.940614 9.5372 1.55085 10.1474C2.16109 10.7577 2.98875 11.1005 3.85175 11.1005H7.75652C8.61952 11.1005 9.44718 10.7577 10.0574 10.1474C10.6677 9.5372 11.0105 8.70954 11.0105 7.84654V3.94177C11.0105 3.07877 10.6677 2.25111 10.0574 1.64087C9.44718 1.03063 8.61952 0.687805 7.75652 0.687805V0.687805ZM10.0343 7.84654C10.0343 9.10257 9.01255 10.1243 7.75652 10.1243H3.85175C2.59572 10.1243 1.57398 9.10257 1.57398 7.84654V3.94177C1.57398 2.68574 2.59572 1.664 3.85175 1.664H7.75652C9.01255 1.664 10.0343 2.68574 10.0343 3.94177V7.84654Z" fill="#FAFBFF"/>
<path d="M5.80419 3.29099C5.11378 3.29099 4.45165 3.56525 3.96346 4.05344C3.47527 4.54163 3.20101 5.20375 3.20101 5.89416C3.20101 6.58456 3.47527 7.24669 3.96346 7.73488C4.45165 8.22307 5.11378 8.49733 5.80419 8.49733C6.49459 8.49733 7.15672 8.22307 7.64491 7.73488C8.1331 7.24669 8.40736 6.58456 8.40736 5.89416C8.40736 5.20375 8.1331 4.54163 7.64491 4.05344C7.15672 3.56525 6.49459 3.29099 5.80419 3.29099ZM5.80419 7.52114C5.37284 7.52063 4.95931 7.34905 4.65431 7.04404C4.3493 6.73903 4.17772 6.3255 4.1772 5.89416C4.1772 4.99672 4.90739 4.26718 5.80419 4.26718C6.70098 4.26718 7.43117 4.99672 7.43117 5.89416C7.43117 6.79095 6.70098 7.52114 5.80419 7.52114Z" fill="#FAFBFF"/>
<path d="M8.6025 3.44265C8.79407 3.44265 8.94937 3.28735 8.94937 3.09577C8.94937 2.9042 8.79407 2.7489 8.6025 2.7489C8.41092 2.7489 8.25562 2.9042 8.25562 3.09577C8.25562 3.28735 8.41092 3.44265 8.6025 3.44265Z" fill="#FAFBFF"/>
</g>
<defs>
<clipPath id="clip0_101_107">
<rect width="10.4127" height="10.4127" fill="white" transform="translate(0.597839 0.687866)"/>
</clipPath>
</defs>
</svg>
