<svg width="12" height="10" viewBox="0 0 12 10" fill="none" xmlns="http://www.w3.org/2000/svg">
<path d="M11.3757 1.99105C10.984 2.16188 10.5697 2.27542 10.1457 2.32816C10.5926 2.06304 10.9267 1.64324 11.0848 1.14827C10.6663 1.39644 10.2085 1.57121 9.73112 1.665C9.43843 1.35248 9.0585 1.1352 8.64071 1.04141C8.22293 0.947611 7.78658 0.98163 7.38838 1.13904C6.99018 1.29646 6.64852 1.56999 6.4078 1.9241C6.16707 2.27822 6.03841 2.69654 6.03852 3.12473C6.03852 3.29394 6.05284 3.45664 6.08798 3.61152C5.23875 3.56989 4.40787 3.34948 3.64965 2.96471C2.89144 2.57994 2.22298 2.03948 1.68797 1.37865C1.41386 1.84843 1.32912 2.40502 1.451 2.93509C1.57288 3.46516 1.89221 3.92884 2.34397 4.23173C2.00605 4.22267 1.67526 4.13249 1.37949 3.96881V3.99224C1.38006 4.48517 1.55043 4.96286 1.86193 5.34489C2.17344 5.72692 2.60705 5.98996 3.08978 6.08975C2.90715 6.13788 2.71894 6.16151 2.53009 6.16003C2.39446 6.16244 2.25896 6.15023 2.12595 6.12359C2.26388 6.54727 2.52976 6.91778 2.88698 7.18409C3.24421 7.45041 3.67521 7.59943 4.12063 7.61065C3.36502 8.2016 2.43311 8.52217 1.47386 8.52111C1.29879 8.52111 1.13089 8.5133 0.962982 8.49183C1.9391 9.12084 3.07655 9.45358 4.23778 9.44979C8.16597 9.44979 10.3136 6.19583 10.3136 3.37529C10.3136 3.28092 10.3103 3.18981 10.3058 3.09935C10.7268 2.79802 11.0894 2.42245 11.3757 1.99105Z" fill="#FAFBFF"/>
</svg>
