<svg width="6" height="6" viewBox="0 0 6 6" fill="none" xmlns="http://www.w3.org/2000/svg">
<path d="M2.80419 0.290985C2.11378 0.290985 1.45165 0.565247 0.963464 1.05344C0.475274 1.54163 0.201012 2.20375 0.201012 2.89416C0.201012 3.58456 0.475274 4.24669 0.963464 4.73488C1.45165 5.22307 2.11378 5.49733 2.80419 5.49733C3.49459 5.49733 4.15672 5.22307 4.64491 4.73488C5.1331 4.24669 5.40736 3.58456 5.40736 2.89416C5.40736 2.20375 5.1331 1.54163 4.64491 1.05344C4.15672 0.565247 3.49459 0.290985 2.80419 0.290985ZM2.80419 4.52114C2.37284 4.52063 1.95931 4.34905 1.65431 4.04404C1.3493 3.73903 1.17772 3.3255 1.1772 2.89416C1.1772 1.99672 1.90739 1.26718 2.80419 1.26718C3.70098 1.26718 4.43117 1.99672 4.43117 2.89416C4.43117 3.79095 3.70098 4.52114 2.80419 4.52114Z" fill="#FAFBFF"/>
</svg>
