<svg width="12" height="9" viewBox="0 0 12 9" fill="none" xmlns="http://www.w3.org/2000/svg">
<path d="M0.719437 0.941833H3.04798V8.10056H0.719437V0.941833ZM9.39061 1.02579C9.36588 1.01798 9.34245 1.00952 9.31642 1.00236C9.28517 0.995283 9.2537 0.989206 9.22206 0.984135C9.08456 0.956024 8.94458 0.941851 8.80425 0.941833C7.44669 0.941833 6.58569 1.92909 6.30194 2.31045V0.941833H3.9734V8.10056H6.30194V4.1958C6.30194 4.1958 8.06169 1.74491 8.80425 3.54501V8.10056H11.1321V3.26972C11.1312 2.75568 10.9597 2.2565 10.6445 1.85041C10.3293 1.44432 9.88833 1.15429 9.39061 1.02579Z" fill="#FAFBFF"/>
</svg>
